<svg xmlns="http://www.w3.org/2000/svg" viewBox="0 0 128 128">
  <path d="M74 48 L108 48" fill="none" stroke="#111827" stroke-width="7" stroke-linecap="round"/>
  <path d="M94 36 L108 48 L94 60" fill="none" stroke="#111827" stroke-width="7" stroke-linecap="round" stroke-linejoin="round"/>

  <path d="M48 22 C46 26, 46 34, 46 42 L46 72" fill="none" stroke="#111827" stroke-width="5" stroke-linecap="round"/>
  <path d="M54 22 C56 26, 56 34, 56 42 L56 72" fill="none" stroke="#111827" stroke-width="5" stroke-linecap="round"/>

  <circle cx="50" cy="38" r="2.2" fill="#111827"/>
  <circle cx="50" cy="52" r="2.2" fill="#111827"/>
  <circle cx="50" cy="66" r="2.2" fill="#111827"/>

  <path d="M34 78 C36 70, 42 66, 50 66 C57 66, 63 70, 64 78" fill="none" stroke="#111827" stroke-width="5" stroke-linecap="round"/>
  <path d="M34 97 L52 97 C60 96, 66 90, 66 82" fill="none" stroke="#111827" stroke-width="5" stroke-linecap="round"/>
  <path d="M33 80 L26 74" fill="none" stroke="#111827" stroke-width="5" stroke-linecap="round"/>
  <path d="M65 73 L72 67" fill="none" stroke="#111827" stroke-width="5" stroke-linecap="round"/>

  <path d="M42 100 C40 106, 40 112, 44 116" fill="none" stroke="#111827" stroke-width="4" stroke-linecap="round"/>
  <path d="M56 100 C58 106, 58 112, 54 116" fill="none" stroke="#111827" stroke-width="4" stroke-linecap="round"/>
</svg>
